# xmcd
#
# Track frame offsets: 
#        183
#        15918
#        33530
#        48143
#        64565
#        83800
#        100070
#        126398
#        146298
#        164905
#
# Disc length: 2497 seconds
#
# Revision: 5
# Processed by: cddbd v1.5.2PL0 Copyright (c) Steve Scherf et al.
# Submitted via: ExactAudioCopy v1.0b1
#
DISCID=7b09bf0a
DTITLE=Blues Brothers Band - Red, White and Blues
DYEAR=1992
DGENRE=Blues
TTITLE0=You Got the Bucks
TTITLE1=Red, White and Blues
TTITLE2=Can't Play the Blues (in an Air-Conditioned Room)
TTITLE3=Early in the Morning
TTITLE4=One Track Train
TTITLE5=Boogie Thing
TTITLE6=Never Found a Girl
TTITLE7=Trick Bag
TTITLE8=Take You and Show You
TTITLE9=Big Bird
EXTD=
EXTT0=
EXTT1=
EXTT2=
EXTT3=
EXTT4=
EXTT5=
EXTT6=
EXTT7=
EXTT8=
EXTT9=
PLAYORDER=
